<?xml version="1.0" encoding="utf-8"?>
<!-- Generator: Adobe Illustrator 17.0.0, SVG Export Plug-In . SVG Version: 6.00 Build 0)  -->
<!DOCTYPE svg PUBLIC "-//W3C//DTD SVG 1.1//EN" "http://www.w3.org/Graphics/SVG/1.1/DTD/svg11.dtd">
<svg version="1.1" id="Layer_1" xmlns="http://www.w3.org/2000/svg" xmlns:xlink="http://www.w3.org/1999/xlink" x="0px" y="0px"
	 width="250px" height="90px" viewBox="0 0 250 90" enable-background="new 0 0 250 90" xml:space="preserve">
<g>
	<path fill="#32619B" d="M110.451,46.248c0.698,0,1.33,0.284,1.787,0.741c0.459,0.458,0.741,1.091,0.741,1.789
		c0,0.699-0.282,1.332-0.741,1.789c-0.457,0.458-1.089,0.741-1.787,0.741c-0.699,0-1.332-0.283-1.79-0.741
		c-0.458-0.458-0.741-1.09-0.741-1.789c0-0.698,0.283-1.331,0.741-1.789C109.119,46.532,109.752,46.248,110.451,46.248
		L110.451,46.248z M111.83,47.398c-0.354-0.354-0.842-0.572-1.379-0.572c-0.54,0-1.028,0.218-1.382,0.572
		c-0.353,0.353-0.571,0.84-0.571,1.38c0,0.539,0.219,1.027,0.571,1.38c0.354,0.353,0.842,0.571,1.382,0.571
		c0.537,0,1.024-0.218,1.379-0.571c0.354-0.354,0.572-0.842,0.572-1.38C112.402,48.239,112.183,47.751,111.83,47.398z"/>
	<path fill="#32619B" d="M109.497,49.987V47.46h1.075c0.27,0,0.466,0.023,0.589,0.068c0.121,0.046,0.221,0.127,0.293,0.243
		c0.074,0.117,0.11,0.248,0.11,0.398c0,0.19-0.055,0.347-0.167,0.47c-0.111,0.123-0.278,0.201-0.501,0.233
		c0.111,0.064,0.202,0.135,0.274,0.212c0.072,0.077,0.168,0.213,0.289,0.41l0.31,0.493h-0.609l-0.37-0.55
		c-0.13-0.196-0.221-0.32-0.268-0.371c-0.048-0.051-0.101-0.086-0.153-0.106c-0.056-0.018-0.141-0.028-0.257-0.028h-0.104v1.055
		H109.497L109.497,49.987z M110.007,48.528h0.377c0.245,0,0.399-0.01,0.46-0.03c0.06-0.021,0.108-0.057,0.142-0.107
		c0.035-0.05,0.053-0.114,0.053-0.189c0-0.086-0.023-0.154-0.068-0.206c-0.045-0.052-0.109-0.085-0.193-0.1
		c-0.04-0.005-0.165-0.008-0.371-0.008h-0.398V48.528z"/>
	<path fill-rule="evenodd" clip-rule="evenodd" fill="#32619B" d="M36.255,2.903c11.56,0,21.544,6.735,26.246,16.495
		c8.426,0.372,16.553,4.532,19.677,13.682c14.953-6.213,25.521,8.244,22.876,18.288c13.521,8.468,5.128,23.986-12.408,29.417
		c-13.482,4.176-32.978,6.657-52.331,1.256C5.116,87.912-11.018,56.737,11.146,46.77v-0.005C8.601,42.44,7.14,37.401,7.14,32.021
		C7.14,15.939,20.175,2.903,36.255,2.903L36.255,2.903z M35.188,33.693c0,3.452,0.701,6.288,1.899,8.271
		c1.217,2.015,2.943,3.148,4.962,3.148c2.473,0,4.193-1.187,5.334-3.039c1.39-2.254,1.929-5.494,1.929-8.787
		c0-2.817-0.176-6.076-1.171-8.626c-0.989-2.534-2.791-4.369-6.041-4.369c-2.335,0-3.92,1.437-4.976,3.474
		C35.623,26.659,35.188,30.761,35.188,33.693L35.188,33.693z M64.93,37.1c-1.379,7.842-5.898,14.601-12.211,18.937
		c0.127-0.195,0.248-0.397,0.362-0.607c0.51-0.931,0.83-1.943,1.021-3.037c0.19-1.091,0.255-2.263,0.255-3.516l-0.021-24.811
		c-0.002-1.549,0.36-2.677,1.126-3.416c0.768-0.739,1.946-1.093,3.578-1.093h0.073v-0.076l0.003-1.066v-0.075h-0.074l-4.761,0.008
		l0,0h-4.894h-0.077v0.075v3.895c-0.854-1.538-1.944-2.653-3.215-3.404c-1.44-0.853-3.112-1.236-4.93-1.236
		c-0.729,0-1.419,0.058-2.068,0.169c-3.549,0.606-5.942,2.778-7.444,5.587c-1.502,2.804-2.119,6.243-2.119,9.396
		c0,1.322,0.109,2.594,0.307,3.75c0.601,3.512,1.908,6.349,3.867,8.29c1.895,1.877,4.399,2.915,7.458,2.915
		c2.014,0,3.528-0.295,4.812-1.037c1.228-0.708,2.24-1.819,3.271-3.465c-0.007,0.449-0.007,1.035-0.007,1.7
		c-0.003,2.924-0.007,7.427-0.537,8.993c-0.482,1.422-1.347,2.41-2.392,3.065c-1.27,0.799-2.812,1.106-4.263,1.106
		c-1.392,0-2.931-0.485-4.087-1.484c-0.959-0.831-1.654-2.02-1.775-3.583l-0.006-0.069h-0.07H30.4h-0.078l0.004,0.078
		c0.107,2.674,1.39,4.447,3.12,5.612c2.205,1.484,5.137,1.978,7.288,2.091c-1.461,0.225-2.955,0.344-4.479,0.344
		c-3.957,0-7.729-0.791-11.169-2.222C6.903,59.012,15.99,80.892,42.927,76.173c16.587,6.976,38.7,7.042,51.613-0.321
		c9.936-5.664,14.14-16.165,4.15-21.389c1.732-10.034-9.148-16.801-18.039-8.704C79.202,37.524,71.377,34.706,64.93,37.1z"/>
</g>
<g>
	<path fill="#32619B" d="M134.472,66.969c4.495,0,7.981-2.142,7.981-7.225v-2.437c0-0.966,0.168-1.722,0.168-1.722h-0.084
		c-1.26,2.562-3.57,4.285-7.057,4.285c-5.461,0-9.326-4.285-9.326-10.838s3.57-10.67,9.031-10.67c5.966,0,7.31,4.117,7.31,4.117
		h0.084c0,0-0.126-0.294-0.126-0.798v-2.814h1.765v20.878c0,6.427-4.621,8.948-9.62,8.948c-2.311,0-4.536-0.588-6.595-1.639
		l0.84-1.554C128.843,65.499,131.448,66.969,134.472,66.969z M142.496,49.032c0-6.763-3.192-8.948-7.31-8.948
		c-4.494,0-7.183,3.277-7.183,8.948s3.108,9.116,7.604,9.116C139.303,58.147,142.496,55.837,142.496,49.032z"/>
	<path fill="#32619B" d="M151.397,30.464h1.765v24.616c0,2.941,1.512,3.277,2.479,3.277c0.336,0,0.63-0.042,0.63-0.042v1.638
		c0,0-0.378,0.084-0.756,0.084c-1.219,0-4.117-0.462-4.117-4.411V30.464z"/>
	<path fill="#32619B" d="M170.592,38.362c6.007,0,10.88,4.747,10.88,10.88c0,6.259-4.873,11.132-10.88,11.132
		s-10.88-4.873-10.88-11.132C159.712,43.109,164.586,38.362,170.592,38.362z M170.592,58.651c4.999,0,9.031-4.075,9.031-9.41
		c0-5.209-4.032-9.158-9.031-9.158s-9.031,3.949-9.031,9.158C161.561,54.577,165.593,58.651,170.592,58.651z"/>
	<path fill="#32619B" d="M187.306,30.464h1.765v10.922c0,0.966-0.168,1.723-0.168,1.723h0.084c0,0,1.806-4.747,7.604-4.747
		c5.629,0,9.073,4.495,9.073,11.006c0,6.679-3.906,11.006-9.41,11.006c-5.293,0-7.267-4.747-7.267-4.747h-0.084
		c0,0,0.168,0.756,0.168,1.848v2.395h-1.765V30.464z M196.337,58.651c4.117,0,7.478-3.402,7.478-9.284
		c0-5.671-3.024-9.284-7.309-9.284c-3.865,0-7.478,2.73-7.478,9.326C189.029,54.073,191.423,58.651,196.337,58.651z"/>
	<path fill="#32619B" d="M211.331,38.866h1.764v12.687c0,3.655,0.462,7.099,5.167,7.099c5.251,0,8.611-4.621,8.611-9.536v-10.25
		h1.765V59.87h-1.765v-3.697c0-0.966,0.168-1.722,0.168-1.722h-0.084c-0.714,1.974-3.612,5.923-8.695,5.923
		c-5.167,0-6.931-2.856-6.931-8.191V38.866z"/>
	<path fill="#32619B" d="M235.354,56.005c0,0,2.353,2.646,6.511,2.646c2.562,0,4.831-1.344,4.831-3.949
		c0-5.335-11.552-3.823-11.552-10.67c0-3.739,3.15-5.671,6.721-5.671c4.285,0,6.218,2.269,6.218,2.269l-1.051,1.428
		c0,0-1.722-1.975-5.293-1.975c-2.395,0-4.747,1.092-4.747,3.823c0,5.461,11.553,3.823,11.553,10.796
		c0,3.361-2.856,5.671-6.722,5.671c-5.083,0-7.604-3.024-7.604-3.024L235.354,56.005z"/>
</g>
</svg>
